<?xml version="1.0" standalone="no"?><!DOCTYPE svg PUBLIC "-//W3C//DTD SVG 1.1//EN" "http://www.w3.org/Graphics/SVG/1.1/DTD/svg11.dtd"><svg t="1760496612849" class="icon" viewBox="0 0 1024 1024" version="1.1" xmlns="http://www.w3.org/2000/svg" p-id="6141" xmlns:xlink="http://www.w3.org/1999/xlink" width="200" height="200"><path d="M306.363835 948.795252c-1.012859 0-2.025717 0-3.038576-0.506429-6.836795-1.772502-10.888229-8.609298-9.115727-15.446093L525.900927 9.622156c1.772502-6.836795 8.609298-10.888229 15.446093-9.115727 6.836795 1.772502 10.888229 8.609298 9.115727 15.446093L318.771352 939.173096c-1.519288 5.823937-6.836795 9.622156-12.407517 9.622156z" fill="#BB4F00" p-id="6142"></path><path d="M685.426149 144.07913c-0.759644 0-1.519288 0-2.278932-0.253215l-162.057369-43.046489c-4.811078-1.266073-7.596439-6.077151-6.330366-10.888229s6.077151-7.596439 10.88823-6.330366l162.057369 43.046488c4.811078 1.266073 7.596439 6.077151 6.330366 10.88823-1.266073 4.051434-4.811078 6.583581-8.609298 6.583581zM657.572539 242.832839c-0.759644 0-1.519288 0-2.278932-0.253215l-162.057369-43.046488c-4.811078-1.266073-7.596439-6.077151-6.330366-10.88823s6.077151-7.596439 10.88823-6.330366l162.057369 43.046489c4.811078 1.266073 7.596439 6.077151 6.330366 10.888229-1.266073 4.051434-4.811078 6.583581-8.609298 6.583581zM637.821797 353.740851c-1.012859 0-2.025717-0.253215-3.038576-0.50643l-166.108803-61.531157c-4.557864-1.772502-6.836795-6.836795-5.317507-11.394659 1.772502-4.557864 6.836795-6.836795 11.394659-5.317507l166.108803 61.531157c4.557864 1.772502 6.836795 6.836795 5.317507 11.394659-1.519288 3.79822-4.811078 5.823937-8.356083 5.823937zM604.903894 470.219585c-1.012859 0-2.278932-0.253215-3.29179-0.50643L445.631886 407.928783c-4.557864-1.772502-6.836795-6.836795-5.064293-11.394658 1.772502-4.557864 6.836795-6.836795 11.394659-5.064293l155.980218 61.531157c4.557864 1.772502 6.836795 6.836795 5.064292 11.394659-1.266073 3.79822-4.811078 5.823937-8.102868 5.823937zM587.178869 579.101879c-1.012859 0-2.025717-0.253215-3.038575-0.506429l-173.705243-61.531157c-4.557864-1.519288-7.09001-6.583581-5.317507-11.394659s6.583581-7.09001 11.394659-5.317507l173.705242 61.531157c4.557864 1.519288 7.09001 6.583581 5.317507 11.394659-1.519288 3.545005-4.811078 5.823937-8.356083 5.823936zM564.389552 682.919881c-1.012859 0-2.025717-0.253215-3.038576-0.506429l-171.173096-61.531157c-4.557864-1.772502-7.09001-6.836795-5.317507-11.394659 1.772502-4.557864 6.836795-7.09001 11.394658-5.317507l171.173096 61.531157c4.557864 1.772502 7.09001 6.836795 5.317508 11.394659-1.519288 3.545005-4.811078 5.823937-8.356083 5.823936zM549.196673 794.334322c-1.012859 0-2.025717-0.253215-3.038575-0.506429L364.603202 724.700297c-4.557864-1.772502-6.836795-6.836795-5.064293-11.394659s6.836795-6.836795 11.394659-5.064293l181.301681 69.127597c4.557864 1.772502 6.836795 6.836795 5.064293 11.394658-1.266073 3.545005-4.557864 5.570722-8.102869 5.570722zM522.862351 906.508408c-1.266073 0-2.785361-0.253215-4.051434-1.012859l-179.782394-91.663699c-4.304649-2.278932-6.077151-7.596439-3.79822-11.901088 2.278932-4.304649 7.596439-6.077151 11.901088-3.79822l179.782394 91.663699c4.304649 2.278932 6.077151 7.596439 3.79822 11.901088-1.519288 3.038576-4.557864 4.811078-7.849654 4.811079z" fill="#BB4F00" p-id="6143"></path><path d="M503.111609 1024c-1.012859 0-1.772502 0-2.785361-0.253215-6.836795-1.519288-11.141444-8.356083-9.622156-15.192878l214.472799-972.597428c1.519288-6.836795 8.356083-11.141444 15.192878-9.622157 6.836795 1.519288 11.141444 8.356083 9.622157 15.192879L515.519126 1014.124629c-1.519288 5.823937-6.583581 9.875371-12.407517 9.875371z" fill="#BB4F00" p-id="6144"></path></svg>